<?xml version="1.0" encoding="UTF-8"?>
<!DOCTYPE svg PUBLIC "-//W3C//DTD SVG 1.1//EN" "http://www.w3.org/Graphics/SVG/1.1/DTD/svg11.dtd">
<!-- Creator: CorelDRAW 2019 (64-Bit) -->
<svg xmlns="http://www.w3.org/2000/svg" xml:space="preserve" width="346.781mm" height="120.033mm" version="1.1" style="shape-rendering:geometricPrecision; text-rendering:geometricPrecision; image-rendering:optimizeQuality; fill-rule:evenodd; clip-rule:evenodd"
viewBox="0 0 34665.06 11998.73"
 xmlns:xlink="http://www.w3.org/1999/xlink">
 <defs>
  <style type="text/css">
   <![CDATA[
    .fil3 {fill:none}
    .fil1 {fill:#A8A8A8}
    .fil2 {fill:#AF8468}
    .fil0 {fill:#C1F0FF}
   ]]>
  </style>
   <clipPath id="id0">
    <path d="M-0 11998.73l34665.06 0 0 -11998.73 -34665.06 0 0 11998.73z"/>
   </clipPath>
     <clipPath id="id1">
      <path d="M-0 3107.62l9041.62 0 0 8891.12 -9041.62 0 0 -8891.12z"/>
     </clipPath>
     <clipPath id="id2">
      <path d="M-0 11998.73l34665.06 0 0 -11998.73 -34665.06 0 0 11998.73z"/>
     </clipPath>
     <clipPath id="id3">
      <path d="M-0 3027.65l9111.59 0 0 8971.09 -9111.59 0 0 -8971.09z"/>
     </clipPath>
     <clipPath id="id4">
      <path d="M-0 11998.73l34665.06 0 0 -11998.73 -34665.06 0 0 11998.73z"/>
     </clipPath>
 </defs>
 <g id="Layer_x0020_1">
  <metadata id="CorelCorpID_0Corel-Layer"/>
  <polygon class="fil0" points="-0,11998.73 34665.06,11998.73 34665.06,0 -0,0 "/>
  <g style="clip-path:url(#id0)">
   <g id="_1777771145008">
    <g>
    </g>
    <g style="clip-path:url(#id1)">
     <image x="-496.35" y="3107.62" width="9537.97" height="9537.97" xlink:href="Card_fixed_Images\Card_fixed_ImgID1.png"/>
    </g>
    <g style="clip-path:url(#id2)">
    </g>
    <rect class="fil1" transform="matrix(0.966304 -0.966304 1.86291 1.86291 -576.776 3522.8)" width="352.65" height="4937.02"/>
    <g>
    </g>
    <g style="clip-path:url(#id3)">
     <image x="-426.38" y="3027.65" width="9537.97" height="9537.97" xlink:href="Card_fixed_Images\Card_fixed_ImgID2.png"/>
    </g>
    <g style="clip-path:url(#id4)">
    </g>
    <rect class="fil2" transform="matrix(0.966304 -0.966304 1.86291 1.86291 -506.802 3442.83)" width="352.65" height="4937.02"/>
   </g>
  </g>
  <polygon class="fil3" points="-0,11998.73 34665.06,11998.73 34665.06,0 -0,0 "/>
 </g>
</svg>
