<svg xmlns="http://www.w3.org/2000/svg" width="24.779" height="24.151" viewBox="0 0 24.779 24.151"><defs><style>.a{fill:#30608f;}</style></defs><path class="a" d="M10.535,4.265l1.228-1.228a1.322,1.322,0,0,1,1.875,0L24.389,13.783a1.322,1.322,0,0,1,0,1.875L13.638,26.408a1.322,1.322,0,0,1-1.875,0l-1.228-1.228a1.329,1.329,0,0,1,.022-1.9l6.664-6.349H1.327A1.324,1.324,0,0,1,0,15.608v-1.77a1.324,1.324,0,0,1,1.327-1.327H17.221L10.557,6.162A1.319,1.319,0,0,1,10.535,4.265Z" transform="translate(0 -2.647)"/></svg>